<svg id="Layer_1" data-name="Layer 1" xmlns="http://www.w3.org/2000/svg" viewBox="0 0 76.32 221.94"><defs><style>.cls-1{fill:#f5f5f5;}.cls-2{fill:#fff2e9;}.cls-3{fill:#ea7628;}</style></defs><path class="cls-1" d="M245,332.3c0,14.68,0,29.16,0,43.65,0,3.63.58,7.07,5.07,7,4.19-.06,4.78-3.39,4.77-6.81,0-14.83.21-29.66,0-44.48-.39-24-19.25-41.89-41.5-39.71C214,311.07,222.66,327.24,245,332.3ZM249.64,161c-16.58,17.92-16.16,41.9.72,53C267.14,197.07,267,178,249.64,161ZM210.3,206.35c.12,22.92,12.36,39.2,37.4,37.31C245.78,216.26,232.57,206.53,210.3,206.35Zm2.82,43C212.88,273,229.2,289,250.67,286.51,250.55,262.67,234.92,247,213.12,249.32Zm73.45-43.73c-5.62,1.14-11.12,2-16.47,3.45a13.17,13.17,0,0,0-5.67,3.62,121.51,121.51,0,0,0-8.31,9.92c-.8,1-1.64,2.6-1.44,3.73,1,5.68,2.42,11.28,3.67,16.89C275.12,241.49,286.42,229.19,286.57,205.59Zm.05,43.28c-11.12.24-21.47,2.09-29,11.37-.87,1.08-1.89,2.78-1.63,3.9,1.66,7,3.66,14,5.54,21C275.63,282.87,286.26,271.28,286.62,248.87Zm-29,53.91c2.73,8.36,5.23,16,7.74,23.71,12.1-2.2,21.42-16,21.18-35.2C275.13,291.82,264.45,293.65,257.59,302.78Z" transform="translate(-210.3 -161.02)"/><path class="cls-2" d="M249.93,382.58a4.19,4.19,0,0,1-3.14-1.08c-1.26-1.26-1.43-3.52-1.43-5.55,0-10.56,0-21.11,0-31.75V332l-.3-.07c-24.73-5.6-30.75-24.56-31.39-39.64,1.08-.09,2.18-.14,3.26-.14,20.66,0,37.12,17.35,37.47,39.51.17,10.06.12,20.29.08,30.18q0,7.14,0,14.3c0,3.31-.53,6.38-4.4,6.44Z" transform="translate(-210.3 -161.02)"/><path class="cls-3" d="M217,291.77v.75c20.45,0,36.74,17.2,37.1,39.15.16,10,.12,20.24.07,30.12q0,7.17,0,14.35c0,4.32-1.12,6-4,6.06h-.12a3.85,3.85,0,0,1-2.88-1c-1.16-1.16-1.31-3.32-1.31-5.28,0-10.56,0-21.34,0-31.76V331.7l-.58-.13c-24.31-5.51-30.37-24.05-31.09-38.93,1-.08,1.92-.12,2.87-.12v-.75m0,0c-1.2,0-2.42.06-3.65.18.72,19.12,9.36,35.29,31.7,40.35,0,14.68,0,29.16,0,43.65,0,3.59.57,7,4.94,7h.13c4.19-.06,4.78-3.39,4.77-6.81,0-14.83.21-29.66,0-44.48-.37-22.65-17.22-39.89-37.85-39.89Z" transform="translate(-210.3 -161.02)"/><path class="cls-2" d="M250.31,213.58a28,28,0,0,1-12.26-20.14c-1.3-10.76,2.93-22.36,11.6-31.88,8.39,8.29,12.69,17.05,12.77,26.05S258.42,205.28,250.31,213.58Z" transform="translate(-210.3 -161.02)"/><path class="cls-3" d="M249.67,162.1c8.13,8.14,12.29,16.72,12.37,25.52s-3.88,17.31-11.78,25.48a27.6,27.6,0,0,1-11.83-19.71c-1.28-10.54,2.81-21.91,11.24-31.29m0-1.08c-16.58,17.92-16.16,41.9.72,53,16.78-17,16.61-36.12-.72-53Z" transform="translate(-210.3 -161.02)"/><path class="cls-2" d="M243.84,243.44c-20.53,0-32.91-13.72-33.17-36.71,23.46.31,34.78,11.61,36.63,36.58C246.12,243.39,245,243.44,243.84,243.44Z" transform="translate(-210.3 -161.02)"/><path class="cls-3" d="M211.05,207.11c22.85.43,33.94,11.52,35.84,35.85-1,.07-2,.1-3,.1-10.57,0-18.84-3.47-24.57-10.32-5.2-6.21-8-15.06-8.22-25.63m-.75-.76c.11,21.71,11.1,37.46,33.54,37.46,1.25,0,2.54-.05,3.86-.15-1.92-27.4-15.13-37.13-37.4-37.31Z" transform="translate(-210.3 -161.02)"/><path class="cls-2" d="M246.33,286.38a31,31,0,0,1-22.56-9.18c-6.67-6.74-10.32-16.51-10.28-27.54a37.82,37.82,0,0,1,3.81-.19c19.52,0,32.75,14.73,33,36.7A38,38,0,0,1,246.33,286.38Z" transform="translate(-210.3 -161.02)"/><path class="cls-3" d="M217.3,249.09v.75c9.41,0,17.51,3.5,23.43,10.1s9,15.46,9.19,25.89c-1.21.12-2.41.18-3.59.18a30.65,30.65,0,0,1-22.3-9.08c-6.53-6.6-10.13-16.14-10.16-26.93,1.15-.1,2.3-.16,3.43-.16v-.75m0,0a39.76,39.76,0,0,0-4.18.23c-.23,22,13.92,37.44,33.21,37.44a37.78,37.78,0,0,0,4.34-.25c-.11-22.29-13.78-37.42-33.37-37.42Z" transform="translate(-210.3 -161.02)"/><path class="cls-2" d="M258.64,242.79q-.45-2-.93-4.08c-.93-4.07-1.89-8.28-2.66-12.46-.18-1,.62-2.48,1.37-3.44a116.53,116.53,0,0,1,8.29-9.89,12.6,12.6,0,0,1,5.49-3.52c3.8-1,7.61-1.74,11.64-2.51,1.44-.27,2.89-.55,4.35-.85C285.92,227.83,276.15,240.85,258.64,242.79Z" transform="translate(-210.3 -161.02)"/><path class="cls-3" d="M285.81,206.5c-.2,10.82-2.79,19.44-7.7,25.64-4.62,5.82-11.07,9.27-19.18,10.24-.27-1.24-.56-2.48-.84-3.72-.94-4.08-1.91-8.3-2.67-12.48-.15-.82.54-2.17,1.3-3.14a117.57,117.57,0,0,1,8.25-9.86,12.24,12.24,0,0,1,5.32-3.41c3.79-1,7.59-1.74,11.61-2.51l3.91-.76m.76-.91c-5.62,1.14-11.12,2-16.47,3.45a13.17,13.17,0,0,0-5.67,3.62,121.51,121.51,0,0,0-8.31,9.92c-.8,1-1.64,2.6-1.44,3.73,1,5.68,2.42,11.28,3.67,16.89,16.77-1.71,28.07-14,28.22-37.61Z" transform="translate(-210.3 -161.02)"/><path class="cls-2" d="M261.85,284.68c-.44-1.63-.89-3.25-1.33-4.87-1.42-5.15-2.88-10.47-4.12-15.75-.23-.94.7-2.52,1.56-3.58,7.55-9.37,18-11,28.27-11.22C285.81,269.24,276.94,282.12,261.85,284.68Z" transform="translate(-210.3 -161.02)"/><path class="cls-3" d="M285.85,249.64c-.52,19.41-9.13,32-23.73,34.61l-1.24-4.54c-1.42-5.15-2.88-10.47-4.12-15.74-.15-.64.46-2,1.49-3.25,7.36-9.14,17.57-10.79,27.6-11.08m.77-.77c-11.12.24-21.47,2.09-29,11.37-.87,1.08-1.89,2.78-1.63,3.9,1.66,7,3.66,14,5.54,21,14.06-2.23,24.69-13.82,25.05-36.23Z" transform="translate(-210.3 -161.02)"/><path class="cls-2" d="M258,302.85c6.78-8.87,17.49-10.64,28.13-11.16.1,17.88-8.3,31.93-20.55,34.37Z" transform="translate(-210.3 -161.02)"/><path class="cls-3" d="M285.77,292.08c0,17.36-8.12,31-19.93,33.55l-7.42-22.7c6.61-8.52,17-10.31,27.35-10.85m.74-.79c-11.38.53-22.06,2.36-28.92,11.49,2.73,8.36,5.23,16,7.74,23.71,12.1-2.2,21.42-16,21.18-35.2Z" transform="translate(-210.3 -161.02)"/></svg>