<svg id="Layer_1" data-name="Layer 1" xmlns="http://www.w3.org/2000/svg" viewBox="0 0 149.68 100.35"><defs><style>.cls-1{fill:#cc423d;}.cls-2{fill:#f8d6c9;}.cls-3{fill:#c94640;}.cls-4{fill:#e3b1a1;}.cls-5{fill:#f8cdbf;}.cls-6{fill:#d9aa9d;}.cls-7{fill:#d34c47;}.cls-8{fill:#f4c2ae;}.cls-9{fill:#efb7a3;}.cls-10{fill:#f5c4b7;}.cls-11{fill:#d2514d;}.cls-12{fill:#d65854;}</style></defs><path class="cls-1" d="M195.36,242.52l-8.71-8.11-10.88-8.61s1.68-6.29,3.7-5.69S188.3,230,188.3,230l10.85,1.12.43-5.35s-1.75-2.13-3.67-4.44a15.15,15.15,0,0,1-2.52-6.2L187,208.89v-9.77l-4.82-8.83s.78-6.75,1.8-6.8,9.41-3.28,9.41-3.28,10.22,1,10.73,1.44,6.71,11.5,6.71,11.5a13.8,13.8,0,0,1,3.26,10c-.36,6.41,2.15,15.67,2.15,15.67l4.38-6s-2.34-4.73,0-6.7,3.9-7.29,3.9-7.29l4.14-2.94,9.19,2.84s9.83-.24,11.77.06S258,201,258,201l3.82-3.86s6-6.6,4.34-6.81S250,187.74,250,187.74,240,190,238.3,189.84s-5.1,1.82-9.64-.33-13.66-7.29-12.42-7.66,10.57-3.21,14.51-2.18,17.61,5,17.61,5l21.78,4.89s14.49,3.65,15.94,4.66,11.68,4.69,11.68,4.69l6.85,2.61s1.73,6,0,7.42-4.67,7.85-9.13,6.65-13.52-1.13-15-.38-7.27,2.69-10.66,4.07-8.48-2.14-3.39,1.38a24.55,24.55,0,0,0,11.42,3.81l2.27-1.87s-1.34,5.25-2.68,6.56-6.7,2.45-9.44,3-7.41,3.91-7.41,3.91l-4,4.77s-3.41.72-3.06,3.45-5.3,2.32-6.63,2.9-6.84,2-10.88.61-9.59-3.13-9.4-5.25,4,.89.18-2.11-16.35-3.72-18.49-1.4a14.62,14.62,0,0,1-5.61,3.39Z" transform="translate(-164.05 -173.67)"/><path class="cls-2" d="M170.45,201c2.25-5.07,4.41-10.17,6.83-15.15.34-.71,1.95-.8,3-1.18-1.49,3.62-.51,6.78,1,10.29,1.82,4.16,2.54,8.81,3.74,13.25-1.28,2.31,2.6,6.64-2.86,7.31l-2.17-3-1.1,1.32c-2.33,4.51-5,9-2.29,14.29h-.08c1.51,9.27,9.67,15.63,20.92,16.31l10.34-.1,9.89-3.71.34,0,.25-.23c4.24-1.78,7.06-1.29,8.31,4,.46,1.93,2.7,4,4.64,4.9,6.48,2.92,13.18,2.31,19.53-.57,3.52-1.6,7.06-3.68,5.8-7.82,8.37-4.46,16.31-8.54,24.06-13,1.73-1,2.75-3.24,4.09-4.92-.32-.84-.65-1.69-1-2.54l1.05-.63c3.71-.61,7.57-.76,11.1-1.91,10.09-3.28,14.49-11.67,7.64-19l0-2.15c5.05,3.56,7.86,8.23,7.21,14.61-1.47,6.69-6.94,10.22-11.47,14.48L290,229.11l-12.43,6.16a59,59,0,0,0-4.84,3.76c-5.3,5-10.08,10.37-17.41,13-17.65,6.23-35.1,3.42-52.63-.09l-12.46-4.11c-3-.61-6.7-.31-8.78-2-5.26-4.33-10.42-9.05-13-15.74l-.07-2c0-3.48-.05-6.95-.08-10.42q1.08-7.83,2.15-15.64l0,.06c.14-.09.41-.22.39-.28A4.36,4.36,0,0,0,170.45,201Z" transform="translate(-164.05 -173.67)"/><path class="cls-3" d="M185,208.16c-1.2-4.44-1.92-9.09-3.74-13.25-1.55-3.51-2.53-6.67-1-10.29l.73-1.13,3-3.28,0,0,1-1h0c1.59-.6,3.18-1.7,4.77-1.69,3.61,0,8.16-.67,10.65,1.18,5.79,4.3,10.59,9.94,15.79,15l.89,2.23a1.36,1.36,0,0,0,.09.89v17.87l3.4-8.53,3.86,5.19v4.18l-3.12-.88-.9,1,6.11,9.25,0,2.06-6.22,1-.27-3.34c-1.95-.26-4.75-.13-4.93-.75-1.17-4.06-4.73-7.66-2.17-12.55,3.8-7.27-.71-16.12-8.3-17-1-2.58-1.35-5.85-3.16-7.5a17.92,17.92,0,0,0-9-4.19c-1.73-.26-4.62,1.83-5.69,3.63-3.43,5.77-.21,18.28,5.43,23,2.17,1.38,4.35,2.75,6.51,4.16,1,.64,1.9,1.38,2.84,2.07,1.28,1.3,2.37,3.42,3.85,3.75,3.93.88,4.11,3.7,4.47,6.65L202.67,228h-3.11l-3-2.12-.67,1.57,3.64.56,6.91,10.85c-1.42,2.14-3.49,2.2-6-.47-1.38-1.48-3.16-3.62-4.78-3.63-5.76-.05-6.46-4-7.23-8.08l4.79,2.91-.49-4.14,4-.94c-6.78-.63-9.49-4.91-10.55-10.87C185.92,211.79,185.45,210,185,208.16Zm23.24-18-.69-.21.11.38Z" transform="translate(-164.05 -173.67)"/><path class="cls-4" d="M286.08,248.94c-4.66,9.58-13.12,14.81-22.57,17.94-14.12,4.69-28.61,8.14-43.74,6.88-9.85-.81-18.94-3.54-26.38-10.44l4.1-3.11a4.46,4.46,0,0,1,1.51.31c13.37,8.4,27.95,5.86,42.48,5.18,8.54-.39,16-5.42,24.7-4.59.59.06,1.34-.8,1.91-1.34,1.57-1.51,3.08-3.07,4.61-4.63,2.21-2.25,4.43-4.51,6.62-6.79,1.16-1.22,2.28-2.49,3.42-3.73Z" transform="translate(-164.05 -173.67)"/><path class="cls-5" d="M217.22,196.81a1.36,1.36,0,0,1-.09-.89c-.3-.74-.59-1.49-.89-2.23-5.2-5.1-10-10.74-15.79-15-2.49-1.85-7-1.16-10.65-1.18-1.59,0-3.18,1.09-4.77,1.69,3.38-4.92,9-4.78,13.75-5,12.47-.54,25.07-.89,37.46.3,7.66.74,14.95,4.75,22.56,6.71,11.06,2.85,22.28,5.1,33.39,7.76,2.11.51,4,1.77,6.05,2.68l-.48,1.23,3.71.8h0l2.11,1.05v0c0,.68,0,1.36,0,2l0,2.16-6.23-3.75c-4-1.49-8-3.32-12.13-4.38-8.83-2.27-18-3.36-26.59-6.37-10.49-3.69-20.7-7.54-32.11-6.69-2.82.21-5.73-1.11-8.62-1.54-3.32-.49-6.68-.76-10-1.12l-.69,1.66c2.31,2.68,4.84,5.21,6.89,8.08s4.4,5.28,8.4,4.76l-3.16,3.08Z" transform="translate(-164.05 -173.67)"/><path class="cls-4" d="M168.36,228c0,.68,0,1.36.07,2,.24,3.39-.28,7.09.95,10.07,1.06,2.54,4.61,3.94,6.21,6.39,3.53,5.4,8.58,7.7,14.62,8.53v6.22c-18.4-2-25.57-12.05-26.09-30.31-.24-8.34.17-16.55,3.37-24.37a29.55,29.55,0,0,1,3-4.62q-1.06,7.81-2.15,15.64A7.31,7.31,0,0,0,168.36,228Z" transform="translate(-164.05 -173.67)"/><path class="cls-6" d="M299.3,225.8c4.53-4.26,10-7.79,11.47-14.48l3,8.3c0,.7,0,1.41,0,2.12l-1,6.2c-.4,1.07-.79,2.14-1.18,3.21l-.79,1h0l-5.2,5.22v0l-1,.76-3.26,1.28-3,1-1.88.3c.06-.73-.12-1.59.22-2.16,1.14-1.95,3.11-3.67,3.52-5.72S299.67,228.14,299.3,225.8Z" transform="translate(-164.05 -173.67)"/><path class="cls-4" d="M299.3,225.8c.37,2.34,1.35,4.81.92,7s-2.38,3.77-3.52,5.72c-.34.57-.16,1.43-.22,2.16l-5.35,3.12c-3.11-4.68-2.53-9.65-1.15-14.68Z" transform="translate(-164.05 -173.67)"/><path class="cls-6" d="M290,229.11c-1.38,5-2,10,1.15,14.68l-5.05,5.15-3.34-4.32-4.17-9.3c-.34,0-.68,0-1,0Z" transform="translate(-164.05 -173.67)"/><path class="cls-6" d="M190.2,261.24c0-2.07,0-4.15,0-6.22v-7.23l12.46,4.11-3.09,3.1c-.69,1.74-1.39,3.47-2.09,5.21l-4.1,3.11Z" transform="translate(-164.05 -173.67)"/><path class="cls-4" d="M313.74,219.62l-3-8.3c.65-6.38-2.16-11-7.21-14.61,0-.68,0-1.36,0-2,5.21,1.07,8.13,4.7,9,9.49C313.47,209.21,313.38,214.45,313.74,219.62Z" transform="translate(-164.05 -173.67)"/><path class="cls-4" d="M305.61,237.37l5.2-5.22Z" transform="translate(-164.05 -173.67)"/><path class="cls-4" d="M312.77,227.94l1-6.2Z" transform="translate(-164.05 -173.67)"/><path class="cls-4" d="M301.47,193.65l-3.71-.8.48-1.23Z" transform="translate(-164.05 -173.67)"/><path class="cls-5" d="M184,180.21l-3,3.28Z" transform="translate(-164.05 -173.67)"/><path class="cls-4" d="M298.36,240.37l3-1Z" transform="translate(-164.05 -173.67)"/><path class="cls-4" d="M303.56,194.69l-2.11-1.05Z" transform="translate(-164.05 -173.67)"/><path class="cls-4" d="M304.61,238.12l1-.77Z" transform="translate(-164.05 -173.67)"/><path class="cls-4" d="M170.45,201a4.36,4.36,0,0,1,.33.77c0,.06-.25.19-.39.28Z" transform="translate(-164.05 -173.67)"/><path class="cls-4" d="M310.8,232.15l.79-1Z" transform="translate(-164.05 -173.67)"/><path class="cls-5" d="M185,179.15l-1,1Z" transform="translate(-164.05 -173.67)"/><path class="cls-7" d="M222.43,189.51c-4,.52-6.26-1.77-8.4-4.76s-4.58-5.4-6.89-8.08l.69-1.66c3.34.36,6.7.63,10,1.12,2.89.43,5.8,1.75,8.62,1.54,11.41-.85,21.62,3,32.11,6.69,8.55,3,17.76,4.1,26.59,6.37,4.14,1.06,8.09,2.89,12.13,4.38.87,1.27,1.75,2.53,2.6,3.82,1.22,1.86,3.22,3.63,3.47,5.62.79,6.33-1.6,9-7.89,11-3.65,1.12-7.13,2.8-10.69,4.23l-1.05.63-1.81-.63c-4-.6-7.92-4-12.15-.54-.22.18-1-.1-1.37-.4-3-2.84-4.25.35-5.72,1.86a48.33,48.33,0,0,0-3.9,5.23c-2.18-.29-5.39,1.11-5.18-3.13,2.58-1,6.12-1.14,4.78-5.51l.2.2,1.16-2.32c2.79-4.84-1.69-7.42-3.38-10.87l1.58-.44-.25-.64-1.46.94-4.72-1q1-2.16,2-4.32l0,0c4.05-.63,7.09,1,9.46,4.18l-2.42.47.64,1.21L263,203l3.09,4.13-1,0-.5-.2.42.28h1.1l3.41.22c.28,2.5.18,4,.69,5.33.41,1,1.58,1.74,2.41,2.6a42.46,42.46,0,0,1,1.89-4.17,10.36,10.36,0,0,1,2-1.94l4.16,4.17-4.87.76c3.45,2.91,4.82,2.74,4.89-.75,1.55-.67,3.07-1.72,4.67-1.88,1.05-.1,2.23,1.09,3.35,1.71l.66,2.34c3.21-2.49,6.64-4.74,9.53-7.56,1.29-1.25,2.58-4.44,1.93-5.32-1.08-1.47-3.69-2.3-5.73-2.47-2.68-.23-5.45.42-8.18.7-.71-.86-1.29-2.29-2.16-2.49-7.18-1.72-14.4-3.21-21.62-4.77-2.79-.19-5.73-1-8.35-.43a31.92,31.92,0,0,1-16.74-.51C233,191.24,227.64,190.56,222.43,189.51ZM277.81,193l-.35-.13-.06.53c.13,0,.28,0,.37-.09S277.8,193.13,277.81,193Z" transform="translate(-164.05 -173.67)"/><path class="cls-7" d="M188.49,226.65c.77,4.14,1.47,8,7.23,8.09,1.62,0,3.4,2.15,4.78,3.63,2.47,2.67,4.54,2.61,6,.47L199.55,228h3.12c1.74,1.34,3.3,3.21,5.27,3.91a31.89,31.89,0,0,0,9.51,1.84,86.06,86.06,0,0,0,11.75-.89c1.67-.18,3.63-.24,4.88-1.14,5.48-4,12-1.79,16.09.27s7,1.9,10.72,1.2c-.1,1,0,2.8-.34,2.88a18.44,18.44,0,0,1-6.5.83c-3.9-.51-7.68-1.92-11.58-2.27-1.71-.15-4.75,1-5.14,2.25-1,2.94,1.56,3.4,4.06,3.69,1.7.2,3.31,1.29,5,2l-3.13,6.24c-7.53,1.25-12.88-1.69-16.45-8.35-3.11-5.8-4.87-5.77-8.49-.07l-.25.23-.35,0c-3.23.34-6.46.63-9.67,1.12-.2,0-.14,1.69-.21,2.59l-10.34.1a19.28,19.28,0,0,0-2.1-1.86c-4.93-3.27-10-6.37-14.79-9.8-1.63-1.15-2.71-3.08-4-4.65h.08c1-2.7,1.93-5.41,2.85-8l5.51,1.65v0l3.31,5.06ZM204.83,234l.32-.24-.27-.29-.41.4Z" transform="translate(-164.05 -173.67)"/><path class="cls-8" d="M199.58,255l3.09-3.1c17.53,3.51,35,6.32,52.63.09,7.33-2.59,12.11-8,17.41-13a59,59,0,0,1,4.84-3.76c.34,0,.68,0,1,0,1.6,5.53-.78,10-4.7,13.23a49.85,49.85,0,0,1-12.72,7.29C240.57,264.14,219.94,267.07,199.58,255Z" transform="translate(-164.05 -173.67)"/><path class="cls-3" d="M218.28,240.36c3.62-5.7,5.38-5.73,8.49.07,3.57,6.66,8.92,9.6,16.45,8.35l10.28-4.5-.63-1.74h-6.52c-1.65-.69-3.26-1.78-5-2-2.5-.29-5-.75-4.06-3.69.39-1.23,3.43-2.4,5.14-2.25,3.9.35,7.68,1.76,11.58,2.27a18.44,18.44,0,0,0,6.5-.83c.33-.08.24-1.88.34-2.88l-2.1-7.26a48.33,48.33,0,0,1,3.9-5.23c1.47-1.51,2.69-4.7,5.72-1.86.32.3,1.15.58,1.37.4,4.23-3.47,8.13-.06,12.15.54L270.39,221v1.49c3.23,0,6.46,0,9.69,0,1.54,0,3.09.26,4.63.39-1.34,1.68-2.36,3.93-4.09,4.92-7.75,4.43-15.69,8.51-24.06,13,1.26,4.14-2.28,6.22-5.8,7.82-6.35,2.88-13,3.49-19.53.57-1.94-.87-4.18-3-4.64-4.9C225.34,239.07,222.52,238.58,218.28,240.36Z" transform="translate(-164.05 -173.67)"/><path class="cls-9" d="M190.21,247.79V255c-6-.83-11.09-3.13-14.62-8.53-1.6-2.45-5.15-3.85-6.21-6.39-1.23-3-.71-6.68-.95-10.07,2.58,6.69,7.74,11.41,13,15.74C183.51,247.48,187.24,247.18,190.21,247.79Z" transform="translate(-164.05 -173.67)"/><path class="cls-3" d="M284.79,219.77c3.56-1.43,7-3.11,10.69-4.23,6.29-1.94,8.68-4.66,7.89-11-.25-2-2.25-3.76-3.47-5.62-.85-1.29-1.73-2.55-2.6-3.82l6.23,3.75c6.85,7.33,2.45,15.72-7.64,19C292.36,219,288.5,219.16,284.79,219.77Z" transform="translate(-164.05 -173.67)"/><path class="cls-10" d="M185,208.16c.41,1.82.88,3.63,1.21,5.46,1.06,6,3.77,10.24,10.55,10.87l-4,.94.49,4.14-4.79-2.91-.19.18L185,221.78v0c-.94-2.1-1.87-4.19-2.8-6.29C187.64,214.8,183.76,210.47,185,208.16Z" transform="translate(-164.05 -173.67)"/><path class="cls-3" d="M176.54,228.07c1.32,1.57,2.4,3.5,4,4.65,4.82,3.43,9.86,6.53,14.79,9.8a19.28,19.28,0,0,1,2.1,1.86C186.21,243.7,178.05,237.34,176.54,228.07Z" transform="translate(-164.05 -173.67)"/><path class="cls-3" d="M182.18,215.47c.93,2.1,1.86,4.19,2.8,6.29l-5.51-1.65c-.92,2.56-1.89,5.27-2.85,8-2.68-5.31,0-9.78,2.29-14.29l1.1-1.32Z" transform="translate(-164.05 -173.67)"/><path class="cls-9" d="M284.71,222.94c-1.54-.13-3.09-.36-4.63-.39-3.23-.06-6.46,0-9.69,0V221l11.54-1.27,1.81.63C284.06,221.25,284.39,222.1,284.71,222.94Z" transform="translate(-164.05 -173.67)"/><path class="cls-3" d="M207.8,244.28c.07-.9,0-2.56.21-2.59,3.21-.49,6.44-.78,9.67-1.12Z" transform="translate(-164.05 -173.67)"/><path class="cls-9" d="M168.36,228a7.31,7.31,0,0,1-.08-10.42C168.31,221.05,168.33,224.52,168.36,228Z" transform="translate(-164.05 -173.67)"/><path class="cls-10" d="M180,212.47l-1.1,1.32Z" transform="translate(-164.05 -173.67)"/><path class="cls-7" d="M210,225.91c-.36-2.95-.54-5.77-4.47-6.65-1.48-.33-2.57-2.45-3.85-3.75,2.9.18,5.83.19,6.12-3.67.39-5.14,1-10.34-4.46-13.78-2.59-1.63-4.62-4.14-7.07-6.05a24.64,24.64,0,0,0-4.29-2.17c-.58,1.5-1.74,3-1.62,4.49.42,5,1.28,10,2,14.95-5.64-4.7-8.86-17.21-5.43-23,1.07-1.8,4-3.89,5.69-3.63a17.92,17.92,0,0,1,9,4.19c1.81,1.65,2.15,4.92,3.16,7.5,7.59.85,12.1,9.7,8.3,17-2.56,4.89,1,8.49,2.17,12.55.18.62,3,.49,4.93.75.08,1,.17,2.17.27,3.34C217,226.9,212.69,230.32,210,225.91Z" transform="translate(-164.05 -173.67)"/><path class="cls-11" d="M210,225.91c2.74,4.41,7,1,10.42,2.06l6.22-1,2.8,1,1.36-4.09c1.53.59,3.09,1.76,4.58,1.67,4.69-.26,9.36-1,14-1.58a7.46,7.46,0,0,0,2.18-1.1l2.08,0c-.21,4.24,3,2.84,5.18,3.13l2.1,7.26c-3.7.7-6.61.86-10.72-1.2s-10.61-4.25-16.09-.27c-1.25.9-3.21,1-4.88,1.14a86.06,86.06,0,0,1-11.75.89,31.89,31.89,0,0,1-9.51-1.84c-2-.7-3.53-2.57-5.27-3.91Z" transform="translate(-164.05 -173.67)"/><path class="cls-11" d="M192.28,209.28c-.69-5-1.55-9.95-2-14.95-.12-1.44,1-3,1.62-4.49a24.64,24.64,0,0,1,4.29,2.17c2.45,1.91,4.48,4.42,7.07,6.05,5.48,3.44,4.85,8.64,4.46,13.78-.29,3.86-3.22,3.85-6.12,3.67-.94-.69-1.86-1.43-2.84-2.07C196.63,212,194.45,210.66,192.28,209.28Z" transform="translate(-164.05 -173.67)"/><path class="cls-1" d="M253.54,198.79l-2,4.33-2.07-.05c-.16-.49-.27-1.37-.48-1.4-4.07-.45-8.15-.81-12.22-1.18l.22.47c-1.25,1-2.54,2-3.73,3.14s-2.17,2.24-3.26,3.37l0,.12c-3.07-.57-5.37,0-5.48,3.75l-3.86-5.19-.54-13.57c6.07-2.53,10.36,1.16,14.83,4.25,1,.67,1.93,1.88,2.94,1.93,3.92.22,7.85.07,11.77.06l1.94.29,1,0A3.14,3.14,0,0,1,253.54,198.79Z" transform="translate(-164.05 -173.67)"/><path class="cls-12" d="M224.48,211.34c.11-3.76,2.41-4.32,5.48-3.75-4.31,4-4.75,6.73-.66,10.79a14.75,14.75,0,0,0,7.91,4.1c4,.51,8.18-.35,12.29-.63l2,1a7.46,7.46,0,0,1-2.18,1.1c-4.66.63-9.33,1.32-14,1.58-1.49.09-3.05-1.08-4.58-1.67l-3.29-2.89-.89,4-6.11-9.25.9-1,3.12.88Z" transform="translate(-164.05 -173.67)"/><path class="cls-9" d="M220.08,192.58l.54,13.57-3.4,8.53V196.81c.68-1.41,1.37-2.81,2.05-4.22h.81Z" transform="translate(-164.05 -173.67)"/><path class="cls-7" d="M226.57,224.89l.89-4,3.29,2.89-1.36,4.09-2.8-1C226.58,226.26,226.58,225.57,226.57,224.89Z" transform="translate(-164.05 -173.67)"/><path class="cls-7" d="M199.55,228l-3.64-.56.67-1.57,3,2.12Z" transform="translate(-164.05 -173.67)"/><path class="cls-7" d="M208.28,190.12l-.58.17-.11-.38Z" transform="translate(-164.05 -173.67)"/><path class="cls-9" d="M216.24,193.69c.3.74.59,1.49.89,2.23C216.83,195.18,216.54,194.43,216.24,193.69Z" transform="translate(-164.05 -173.67)"/><path class="cls-9" d="M199.58,255c20.36,12.07,41,9.14,61.57.84a49.85,49.85,0,0,0,12.72-7.29c3.92-3.2,6.3-7.7,4.7-13.23l4.17,9.3c-1.14,1.24-2.26,2.51-3.42,3.73-2.19,2.28-4.41,4.54-6.62,6.79-1.53,1.56-3,3.12-4.61,4.63-.57.54-1.32,1.4-1.91,1.34-8.66-.83-16.16,4.2-24.7,4.59-14.53.68-29.11,3.22-42.48-5.18a4.46,4.46,0,0,0-1.51-.31C198.19,258.47,198.89,256.74,199.58,255Z" transform="translate(-164.05 -173.67)"/><path class="cls-8" d="M220.08,192.58h-.81l3.16-3.08c5.21,1.05,10.52,1.73,15.59,3.25a31.92,31.92,0,0,0,16.74.51c2.62-.59,5.56.24,8.35.43l-5.74,1.16c-2.21.44-4.54.74-3.86,4l0,0a3.11,3.11,0,0,0-1,.32,2.75,2.75,0,0,0-1,0l-1.94-.29c-3.68-1.2-7.31-2.58-11.05-3.47-1-.25-2.43.94-3.66,1.48C230.44,193.74,226.15,190.05,220.08,192.58Z" transform="translate(-164.05 -173.67)"/><path class="cls-5" d="M249.5,221.85c-4.11.28-8.29,1.14-12.29.63a14.75,14.75,0,0,1-7.91-4.1c-4.09-4.06-3.65-6.75.66-10.79l0-.12,16.64-4.28,2.83-.12,2.07.05,4.72,1,.13.14c1.69,3.45,6.17,6,3.38,10.87-.38.78-.77,1.55-1.16,2.32l-.2-.2Zm5-9.81c-4.39-6.32-10.19-2.54-15.35-2.61-1.61,0-3.23,1.58-4.85,2.43,1,1.48,1.65,3.29,2.95,4.37C240.68,219.06,250.77,216.48,254.48,212Z" transform="translate(-164.05 -173.67)"/><path class="cls-3" d="M253.51,198.85c-.68-3.25,1.65-3.55,3.86-4l5.74-1.16c7.22,1.56,14.44,3.05,21.62,4.77.87.2,1.45,1.63,2.16,2.49-4.6,1.35-8.78,3.23-10.41,8.3a10.36,10.36,0,0,0-2,1.94,42.46,42.46,0,0,0-1.89,4.17c-.83-.86-2-1.57-2.41-2.6-.51-1.29-.41-2.83-.69-5.33l-3.41-.22,0-.05L263,203h0C260.6,199.88,257.56,198.22,253.51,198.85Z" transform="translate(-164.05 -173.67)"/><path class="cls-11" d="M276.48,209.26c1.63-5.07,5.81-6.95,10.41-8.3,2.73-.28,5.5-.93,8.18-.7,2,.17,4.65,1,5.73,2.47.65.88-.64,4.07-1.93,5.32-2.89,2.82-6.32,5.07-9.53,7.56l-.66-2.34c-1.12-.62-2.3-1.81-3.35-1.71-1.6.16-3.12,1.21-4.67,1.88h0Z" transform="translate(-164.05 -173.67)"/><path class="cls-3" d="M249.5,221.85l8.89-4.57c1.34,4.37-2.2,4.53-4.78,5.51l-2.08,0Z" transform="translate(-164.05 -173.67)"/><path class="cls-11" d="M280.66,213.44c-.07,3.49-1.44,3.66-4.89.75l4.87-.76Z" transform="translate(-164.05 -173.67)"/><path class="cls-3" d="M263,203l-1.79,1.67-.64-1.21L263,203Z" transform="translate(-164.05 -173.67)"/><path class="cls-3" d="M277.81,193c0,.11,0,.27,0,.31s-.24.06-.37.09l.06-.53Z" transform="translate(-164.05 -173.67)"/><path class="cls-3" d="M256.24,204.15l1.46-.94.25.64-1.58.44Z" transform="translate(-164.05 -173.67)"/><path class="cls-3" d="M258.59,217.48c.39-.77.78-1.54,1.16-2.32C259.37,215.93,259,216.71,258.59,217.48Z" transform="translate(-164.05 -173.67)"/><path class="cls-3" d="M265.09,207.15l1,0,0,.05H265Z" transform="translate(-164.05 -173.67)"/><path class="cls-3" d="M265,207.23l-.42-.28.5.2Z" transform="translate(-164.05 -173.67)"/><path class="cls-1" d="M246.35,242.54h6.52l.63,1.74-10.28,4.5Z" transform="translate(-164.05 -173.67)"/><path class="cls-3" d="M185,221.78l3.31,5.06Z" transform="translate(-164.05 -173.67)"/><path class="cls-3" d="M204.83,234l-.36-.13.41-.4.27.29Z" transform="translate(-164.05 -173.67)"/><path class="cls-12" d="M246.62,203.19,230,207.47c1.09-1.13,2.12-2.31,3.26-3.37S235.72,202,237,201L239.1,202l1,1Z" transform="translate(-164.05 -173.67)"/><path class="cls-3" d="M234.91,196.83c1.23-.54,2.61-1.73,3.66-1.48,3.74.89,7.37,2.27,11.05,3.47-3.92,0-7.85.16-11.77-.06C236.84,198.71,235.89,197.5,234.91,196.83Z" transform="translate(-164.05 -173.67)"/><path class="cls-7" d="M246.62,203.19,240.1,203l-1-1L237,201c-.07-.16-.15-.32-.22-.47,4.07.37,8.15.73,12.22,1.18.21,0,.32.91.48,1.4Z" transform="translate(-164.05 -173.67)"/><path class="cls-7" d="M251.56,199.11a2.75,2.75,0,0,1,1,0Z" transform="translate(-164.05 -173.67)"/><path class="cls-8" d="M254.48,212c-3.71,4.44-13.8,7-17.25,4.19-1.3-1.08-2-2.89-2.95-4.37,1.62-.85,3.24-2.45,4.85-2.43C244.29,209.5,250.09,205.72,254.48,212Z" transform="translate(-164.05 -173.67)"/><path class="cls-1" d="M239.1,202l1,1Z" transform="translate(-164.05 -173.67)"/></svg>