<svg id="Layer_1" data-name="Layer 1" xmlns="http://www.w3.org/2000/svg" viewBox="0 0 29.05 81.74"><defs><style>.cls-1{fill:#fff;}.cls-2{fill:#e2e2e2;}.cls-3{fill:#207cbb;}.cls-4{fill:#f6f6f6;}.cls-5{fill:#cdcece;}.cls-6{fill:#3698dc;}.cls-7{fill:#2172ac;}.cls-8{fill:#fbfbfb;}.cls-9{fill:#fdfdfd;}.cls-10{fill:#f9f9f9;}.cls-11{fill:#fcfcfc;}.cls-12{fill:#6ddbfd;}.cls-13{fill:#83fcfd;}</style></defs><path class="cls-1" d="M245,198.76h10.46s5.2,10.58,5,12,3.33,14.7,3.33,14.7-.73,14.61,0,15.66.74,15,.74,16-1.39,12.74-1.39,12.74l-4.6,1-7.07,2.6-5.53.24-7.63-3.16s-1.54-5.47-1.61-6.25-1-11.67-1-12.27V230.64l1-11.95Z" transform="translate(-235.47 -192.39)"/><polyline class="cls-2" points="10.07 79.55 25.7 75.61 26.87 61.79 26.87 39.04 25.99 23.79 20.45 9.23 12.93 5.84 8.41 8.46 4.34 19.07 2.52 34.48 1.19 57.44 2.14 65.62 10.07 80.11"/><path class="cls-3" d="M250.16,198.25c.24.05,3.66.05,3.66.05l.59-.84,1.06-1.84.09-1.52a5.88,5.88,0,0,0-.41-1.14c-.1-.07-2.54-.34-2.7-.44a33.47,33.47,0,0,0-3.47.25l-3.44.09-1.4,1.22v2.47a7,7,0,0,1,.52.76c.16.31,4.71,1.45,4.71,1.45Z" transform="translate(-235.47 -192.39)"/><path class="cls-4" d="M243.89,200.85l.73-2.86h.22c2.41,1,4.92.81,7.43.61.32,1.47.6,2.94,1,4.4.69,2.77,1.37,5.55,2.16,8.3a54.83,54.83,0,0,1,2.41,15.26c0,9.43,0,18.86,0,28.3a35.74,35.74,0,0,1-.5,5.45c-.55,3.38-2.16,5.85-5.72,6.92a15.44,15.44,0,0,1-6.9.62c-2.7-.42-5.35-1-7.26-3.21a2.19,2.19,0,0,0-.71-.38c-.08-1-.24-2.06-.23-3.09,0-1.67.19-3.34.2-5,0-9.83,0-19.66.05-29.48a49.15,49.15,0,0,1,.61-6.4c.64-4.63,2.55-8.86,4.17-13.18.66-1.74,1.28-3.49,1.91-5.24h0l.24-.49h0Zm-3.61,17.09.48.72c-.16.06-.46.2-.48.16-.24-.35-.43-.74-.64-1.12l-.55.39a4.23,4.23,0,0,1,.18,1.42,5.44,5.44,0,0,1-.88,1.36l.91.71a12,12,0,0,0-1.13,3c-.28,3.29-.46,6.59-.51,9.89-.07,5.87,0,11.74,0,17.61,0,1.3,0,2.75,1.41,3.54.17.54.19,1.21.54,1.59a9.92,9.92,0,0,0,1.86,1.29L241,259c-.39-.64-.88-1.17-1.7-.89a4,4,0,0,0-1,.76l.07.35c.94,0,1.87,0,1.19,1.22-.81,0-.85.4-.53,1a3.3,3.3,0,0,1,.51,1,2.59,2.59,0,0,0,1.91,2.23,29.12,29.12,0,0,0,3.67,1c2.77.54,5.51-.48,6.58-2.77a15.68,15.68,0,0,0,1.25-5.15c.16-1.93-.19-3.9-.17-5.85.05-8.94.16-17.89.21-26.84,0-2.39-.05-4.79-.26-7.17a53.66,53.66,0,0,0-.95-5.74c-.25-1.26-.69-1.35-1.69-.52a6.85,6.85,0,0,1-.76.53c-.25-.94-.22-2.06-.76-2.51s-1.63-.25-2.75-.36l1.43-1.21a26,26,0,0,0,2.25,1.42,3.52,3.52,0,0,0,1.46.18c.11,0,.21-.36.32-.56a8.18,8.18,0,0,0-1.07-.53c-1.13-.37-2.05-2.7-1.19-3.37,1.22-.95.92-2,.61-3.12-.65-2.33-2.31-2.84-3.8-1a20.47,20.47,0,0,0-2.68,4.74c-.88,2-1.51,4.15-2.24,6.22h.34l.95,1.11-.24,1.44v.24h-1c-1.13,0-1.25.88-1.54,1.64S239.81,217.56,240.28,217.94Zm10.19-12.86L250,205a4.41,4.41,0,0,0-.28,1.63c.11.5.61.91.94,1.36l.42-.23Z" transform="translate(-235.47 -192.39)"/><path class="cls-2" d="M255.4,197.78l1.68,4.09c-.38.88.16,1.4.73,1.91h0l.72,1.93h0l.48,1.21h0l.72,1.69h0l.72,2.17h0l.24.73h0l.24.73h0l.48,1.45h0a3.17,3.17,0,0,0,.07.82c2.09,5.92,2.14,12.1,2.29,18.25.08,3.6-.17,7.22-.2,10.83,0,5.91.05,11.82,0,17.72a22.43,22.43,0,0,1-.78,5.4c-.33,1.24-.81,2.63-2.29,3.16.23-2.37.63-4.73.67-7.1.15-9.3.19-18.6.27-27.9,0-1.08,0-2.16,0-3.24,0-3,.14-6,0-8.93-.32-5.57-2.14-10.82-3.89-16.06-.95-2.82-2.18-5.55-3.29-8.32Z" transform="translate(-235.47 -192.39)"/><path class="cls-5" d="M260.46,269.8c1.48-.53,2-1.92,2.29-3.16a22.43,22.43,0,0,0,.78-5.4c.09-5.9,0-11.81,0-17.72,0-3.61.28-7.23.2-10.83-.15-6.15-.2-12.33-2.29-18.25a3.17,3.17,0,0,1-.07-.82,63.49,63.49,0,0,1,2.1,6.8,70.78,70.78,0,0,1,1,14.4c0,9.2,0,18.4,0,27.59a13.47,13.47,0,0,1-1.59,6.44c-1.45,2.64-4,3.73-6.65,4.49a22.39,22.39,0,0,1-11.12.17,17.82,17.82,0,0,1-4.43-1.29,9.14,9.14,0,0,1-5.17-7.94c-.19-4.09.1-8.19.16-12.29,0-2.36,0-4.72,0-7.08,0-4.75,0-9.51,0-14.27A55.07,55.07,0,0,1,240,209.11c1-2.46,2.24-4.84,3.36-7.25-.63,1.75-1.25,3.5-1.91,5.24-1.62,4.32-3.53,8.55-4.17,13.18a49.15,49.15,0,0,0-.61,6.4c-.07,9.82,0,19.65-.05,29.48,0,1.67-.19,3.34-.2,5,0,1,.15,2.06.23,3.09a8.61,8.61,0,0,0,7,7.92c1.36.23,2.72.52,4.1.62a22,22,0,0,0,9.49-.86A5.07,5.07,0,0,0,260.46,269.8Z" transform="translate(-235.47 -192.39)"/><path class="cls-3" d="M251.54,192.48c1.59-.19,3.14-.17,4.38,1.08,0,1.17,0,2.33,0,3.5l-.2.25-.24.3h0a5.86,5.86,0,0,0-.59,0c-2.16.22-4.31.48-6.47.64a3.92,3.92,0,0,1-1.41-.45c1.13-.08,2.26-.18,3.4-.23,1.7-.07,2.91-.84,3.21-2.23l-3.09.38-1.83-.08-1-.54h.68c1.33-.06,2.68,0,4-.21.4-.06.73-.64,1.09-1a11.63,11.63,0,0,0-1.1-1.12A2.79,2.79,0,0,0,251.54,192.48Z" transform="translate(-235.47 -192.39)"/><path class="cls-6" d="M251.54,192.48a2.79,2.79,0,0,1,.84.3,11.63,11.63,0,0,1,1.1,1.12c-.36.34-.69.92-1.09,1-1.32.17-2.67.15-4,.21.59-.22,1.18-.43,1.76-.68a7.58,7.58,0,0,0,.88-.49c-.21-.29-.41-.6-.65-.87a1.62,1.62,0,0,0-.5-.28l.84-.25Z" transform="translate(-235.47 -192.39)"/><path class="cls-3" d="M250.72,192.52l-.84.25h-1.41L247,193l-.52.23-.94.47-.74,1.46-.28.15.29.13,0,.7a3.39,3.39,0,0,0,.15,1.17c.12.24.55.34.84.5l-1,.22h-.22a22.56,22.56,0,0,1-.5-2.9c-.09-1.62.24-2.18,1.8-2.41A38.31,38.31,0,0,1,250.72,192.52Z" transform="translate(-235.47 -192.39)"/><path class="cls-7" d="M244.84,198l1-.22H247a3.92,3.92,0,0,0,1.41.45c2.16-.16,4.31-.42,6.47-.64a5.86,5.86,0,0,1,.59,0,.36.36,0,0,1-.07.18l-1.2.47-1.42.29-.51.06C249.76,198.8,247.25,199,244.84,198Z" transform="translate(-235.47 -192.39)"/><path class="cls-7" d="M255.88,197.06c0-1.17,0-2.33,0-3.5C255.91,194.73,255.89,195.89,255.88,197.06Z" transform="translate(-235.47 -192.39)"/><path class="cls-5" d="M257.81,203.78c-.57-.51-1.11-1-.73-1.91C257.32,202.51,257.57,203.14,257.81,203.78Z" transform="translate(-235.47 -192.39)"/><path class="cls-5" d="M260.45,210.74l-.72-2.17Z" transform="translate(-235.47 -192.39)"/><path class="cls-5" d="M258.53,205.7l-.72-1.93Z" transform="translate(-235.47 -192.39)"/><path class="cls-5" d="M259.73,208.58l-.72-1.69Z" transform="translate(-235.47 -192.39)"/><path class="cls-5" d="M261.41,213.62l-.48-1.45Z" transform="translate(-235.47 -192.39)"/><path class="cls-5" d="M259,206.9l-.48-1.21Z" transform="translate(-235.47 -192.39)"/><path class="cls-5" d="M260.93,212.18l-.24-.73Z" transform="translate(-235.47 -192.39)"/><path class="cls-5" d="M260.69,211.46l-.24-.73Z" transform="translate(-235.47 -192.39)"/><path class="cls-5" d="M243.89,200.85l-.25.54Z" transform="translate(-235.47 -192.39)"/><path class="cls-5" d="M243.64,201.38l-.24.49Z" transform="translate(-235.47 -192.39)"/><path class="cls-7" d="M255.44,197.61l.24-.3Z" transform="translate(-235.47 -192.39)"/><path class="cls-8" d="M241,259l.48-.48,1.17-.09-.18-1c-1.42.25-1.22-.91-1.47-1.76h-1.92c-1.42-.79-1.4-2.24-1.41-3.54-.06-5.87-.08-11.74,0-17.61.05-3.3.23-6.6.51-9.89a12,12,0,0,1,1.13-3l-.91-.71a5.44,5.44,0,0,0,.88-1.36,4.23,4.23,0,0,0-.18-1.42l.55-.39c.21.38.4.77.64,1.12,0,0,.32-.1.48-.16a1.72,1.72,0,0,0,2-1.11,1.65,1.65,0,0,0-.5-2.11c-.16-.13-.19-.41-.29-.62v-.24a3.29,3.29,0,0,0,.71.56,4.1,4.1,0,0,0,1.92.53c.48-.09.85-.82,1.27-1.27l-.29-.3-1.5.73-.16-.24,1.17-1.5c-1.43-1.1-1.43-1.1-2.88,0l-.95-1.11h-.34c.73-2.07,1.36-4.2,2.24-6.22a20.47,20.47,0,0,1,2.68-4.74c1.49-1.84,3.15-1.33,3.8,1,.31,1.11.61,2.17-.61,3.12-.86.67.06,3,1.19,3.37a8.18,8.18,0,0,1,1.07.53c-.11.2-.21.56-.32.56a3.52,3.52,0,0,1-1.46-.18,26,26,0,0,1-2.25-1.42l-1.43,1.21c1.12.11,2.22-.1,2.75.36s.51,1.57.76,2.51a6.85,6.85,0,0,0,.76-.53c1-.83,1.44-.74,1.69.52a53.66,53.66,0,0,1,.95,5.74c.21,2.38.27,4.78.26,7.17-.05,9-.16,17.9-.21,26.84,0,2,.33,3.92.17,5.85a15.68,15.68,0,0,1-1.25,5.15c-1.07,2.29-3.81,3.31-6.58,2.77a29.12,29.12,0,0,1-3.67-1,2.59,2.59,0,0,1-1.91-2.23,3.3,3.3,0,0,0-.51-1c-.32-.61-.28-1,.53-1,.38.84.86.55,1.16,0A4.92,4.92,0,0,0,241,259Zm7.44-8.16-.39-2.39-.39,0-.33,1.53c-.88-.55-1.68-1.06-7.52,3.93,1.68-1.48,3.22-2.48,3.94-4.39a3.37,3.37,0,0,1,2.86-2.31c1.76-.15,1.85-.24,1.83-2-.07-5.31-.25-10.62-.21-15.92,0-4.7.31-9.4.43-14.1,0-.42-.34-.86-.52-1.29a8.27,8.27,0,0,0-1.16.95c-.51.59-.89,1.29-1.41,1.87-.68.76-1.44,1.44-2.16,2.17-.56.57-1.11,1.15-1.63,1.75a9,9,0,0,0-2,2.47,15.58,15.58,0,0,0-.71,4.41c-.1,2.64-.05,5.28,0,7.92q.09,8.43.25,16.88c0,.46.26.91,5.5-3.9,1,1.19,2,2.38,3.09,3.53.09.1.49-.1.75-.17,0,.27-.18.56-.11.79s.28.8.49.83c.76.1,2-1.88,1.83-2.58Zm-3.6,2.88a4.06,4.06,0,0,1-.78-.2,1.64,1.64,0,0,0-2.57,1.49,2.25,2.25,0,0,0,1.91,2.06c1.1,0,1.67-.59,1.68-1.8,0-.35,0-.71,0-1.07,2.19,0,2.49-.16,2.46-1.21l-2.09-.1.1-2C244.21,251.23,243.94,252.26,244.84,253.7Zm3,1.38c-2.38,2.34-4.64,4.55-6.87,6.81a1,1,0,0,0,0,1c1.3,1.74,4.95,2,6.11.28,1.44-2.21,1.52-4.7,1.23-7.22C248.29,255.66,248,255.44,247.82,255.08Z" transform="translate(-235.47 -192.39)"/><path class="cls-2" d="M252.27,198.6l.51-.06a30.37,30.37,0,0,1,1.64,3.71c1.12,3.9,2.22,7.81,3.11,11.76a55.9,55.9,0,0,1,1.64,10c.3,8.26.26,16.53.29,24.8,0,3.75-.17,7.5-.21,11.25,0,4.07-.09,8.13-1.93,11.91a22,22,0,0,1-9.49.86c-1.38-.1-2.74-.39-4.1-.62a8.61,8.61,0,0,1-7-7.92,2.19,2.19,0,0,1,.71.38c1.91,2.23,4.56,2.79,7.26,3.21a15.44,15.44,0,0,0,6.9-.62c3.56-1.07,5.17-3.54,5.72-6.92a35.74,35.74,0,0,0,.5-5.45c.05-9.44,0-18.87,0-28.3a54.83,54.83,0,0,0-2.41-15.26c-.79-2.75-1.47-5.53-2.16-8.3C252.87,201.54,252.59,200.07,252.27,198.6Z" transform="translate(-235.47 -192.39)"/><path class="cls-9" d="M242.2,213.14c1.45-1.15,1.45-1.15,2.88,0l-1.17,1.5.16.24,1.5-.73.29.3c-.42.45-.79,1.18-1.27,1.27a4.1,4.1,0,0,1-1.92-.53,3.29,3.29,0,0,1-.71-.56Z" transform="translate(-235.47 -192.39)"/><path class="cls-9" d="M239.08,255.62H241c.25.85.05,2,1.47,1.76l.18,1-1.17.09a9.92,9.92,0,0,1-1.86-1.29C239.27,256.83,239.25,256.16,239.08,255.62Z" transform="translate(-235.47 -192.39)"/><path class="cls-9" d="M242,214.82c.1.21.13.49.29.62a1.65,1.65,0,0,1,.5,2.11,1.72,1.72,0,0,1-2,1.11l-.48-.72.13-1,1.18.7.36-.17c-.13-.44-.24-.9-.39-1.33s-.37-.91-.56-1.36Z" transform="translate(-235.47 -192.39)"/><path class="cls-10" d="M241,214.82c.19.45.4.9.56,1.36s.26.89.39,1.33l-.36.17-1.18-.7-.13,1c-.47-.38-1.14-.64-.82-1.48S239.87,214.79,241,214.82Z" transform="translate(-235.47 -192.39)"/><path class="cls-11" d="M241,259a4.92,4.92,0,0,1-.28,1.46c-.3.53-.78.82-1.16,0,.68-1.25-.25-1.24-1.19-1.22l-.07-.35a4,4,0,0,1,1-.76C240.12,257.81,240.61,258.34,241,259Z" transform="translate(-235.47 -192.39)"/><path class="cls-8" d="M250.47,205.08l.61,2.65-.42.23c-.33-.45-.83-.86-.94-1.36A4.41,4.41,0,0,1,250,205Z" transform="translate(-235.47 -192.39)"/><path class="cls-8" d="M257.32,271.94c1.84-3.78,1.89-7.84,1.93-11.91,0-3.75.23-7.5.21-11.25,0-8.27,0-16.54-.29-24.8a55.9,55.9,0,0,0-1.64-10c-.89-3.95-2-7.86-3.11-11.76a30.37,30.37,0,0,0-1.64-3.71l1.42-.29c1.11,2.77,2.34,5.5,3.29,8.32,1.75,5.24,3.57,10.49,3.89,16.06.17,3,0,6,0,8.93,0,1.08,0,2.16,0,3.24-.08,9.3-.12,18.6-.27,27.9,0,2.37-.44,4.73-.67,7.1A5.07,5.07,0,0,1,257.32,271.94Z" transform="translate(-235.47 -192.39)"/><path class="cls-12" d="M248.47,192.77h1.41a1.62,1.62,0,0,1,.5.28c.24.27.44.58.65.87a7.58,7.58,0,0,1-.88.49c-.58.25-1.17.46-1.76.68h-.68l-1.43-.25-.07.35,2.48.44,1.83.07c-.2.29-.35.74-.62.82a14.77,14.77,0,0,1-2.56.55,2.3,2.3,0,0,1-2.51-1c0-.23,0-.46,0-.7a2.62,2.62,0,0,1,0-.28c.25-.48.49-1,.74-1.46.18.24.35.69.52.69,1.18,0,2.5.5,3.45-.93l-3-.23L247,193Z" transform="translate(-235.47 -192.39)"/><path class="cls-6" d="M244.83,196.1a2.3,2.3,0,0,0,2.51,1,14.77,14.77,0,0,0,2.56-.55c.27-.08.42-.53.62-.82l3.09-.37c-.3,1.39-1.51,2.16-3.21,2.23-1.14,0-2.27.15-3.4.23h-1.18c-.29-.16-.72-.26-.84-.5A3.39,3.39,0,0,1,244.83,196.1Z" transform="translate(-235.47 -192.39)"/><path class="cls-6" d="M248.69,195.62l-2.48-.44.07-.35,1.43.25Z" transform="translate(-235.47 -192.39)"/><path class="cls-13" d="M246.48,193.19l3,.23c-.95,1.43-2.27,1-3.45.93-.17,0-.34-.45-.52-.69Z" transform="translate(-235.47 -192.39)"/><path class="cls-6" d="M248.47,192.77,247,193Z" transform="translate(-235.47 -192.39)"/><path class="cls-6" d="M244.8,195.12a2.62,2.62,0,0,0,0,.28l-.29-.13Z" transform="translate(-235.47 -192.39)"/><path class="cls-9" d="M239.81,253.92a7.21,7.21,0,0,1-.47-1.6q-.17-8.44-.25-16.88c0-2.64-.08-5.28,0-7.92a15.58,15.58,0,0,1,.71-4.41,9,9,0,0,1,2-2.47c.52-.6,1.07-1.18,1.63-1.75.72-.73,1.48-1.41,2.16-2.17.52-.58.9-1.28,1.41-1.87a8.27,8.27,0,0,1,1.16-.95c.18.43.53.87.52,1.29-.12,4.7-.4,9.4-.43,14.1,0,5.3.14,10.61.21,15.92,0,1.77-.07,1.86-1.83,2a3.37,3.37,0,0,0-2.86,2.31C243,251.44,241.49,252.44,239.81,253.92Z" transform="translate(-235.47 -192.39)"/><path class="cls-9" d="M247.82,255.08c.22.36.47.58.49.83.29,2.52.21,5-1.23,7.22-1.16,1.77-4.81,1.46-6.11-.28a1,1,0,0,1,0-1C243.18,259.63,245.44,257.42,247.82,255.08Z" transform="translate(-235.47 -192.39)"/><path class="cls-11" d="M245.08,254.18c0,.36,0,.72,0,1.07,0,1.21-.58,1.82-1.68,1.8a2.25,2.25,0,0,1-1.91-2.06,1.64,1.64,0,0,1,2.57-1.49,4.06,4.06,0,0,0,.78.2Z" transform="translate(-235.47 -192.39)"/><path class="cls-9" d="M248.68,251.78c-.26.07-.66.27-.75.17-1.06-1.15-2.07-2.34-3.09-3.53l2.49,1.57.33-1.53.39,0,.39,2.39Z" transform="translate(-235.47 -192.39)"/><path class="cls-9" d="M245.08,254.18l-.24-.48c-.9-1.44-.63-2.47.71-2.8l-.1,2,2.09.1C247.57,254,247.27,254.18,245.08,254.18Z" transform="translate(-235.47 -192.39)"/><path class="cls-10" d="M248.68,251.78l-.24-1h2.45c.19.7-1.07,2.68-1.83,2.58-.21,0-.41-.52-.49-.83S248.64,252.05,248.68,251.78Z" transform="translate(-235.47 -192.39)"/></svg>