<?xml version="1.0" encoding="utf-8"?>
<!-- Generator: Adobe Illustrator 26.0.1, SVG Export Plug-In . SVG Version: 6.00 Build 0)  -->
<svg version="1.1" id="Layer_1" xmlns="http://www.w3.org/2000/svg" xmlns:xlink="http://www.w3.org/1999/xlink" x="0px" y="0px"
	 viewBox="0 0 1280 1280" style="enable-background:new 0 0 1280 1280;" xml:space="preserve">
<g transform="translate(0.000000,1280.000000) scale(0.100000,-0.100000)">
	<path d="M4996.9,10109.5c-114-16.9-230.9-73.4-364.1-176.7c-78.5-61.5-250.7-233.2-410.4-410.4c-83.6-92.6-182.9-194.2-278.9-285.7
		c-81.9-77.9-178.4-172.2-214-208.9c-312.2-322.9-376.5-586-206.1-846.8c103.9-159.8,219-282.8,522.2-560
		c129.8-118,338.2-321.2,663.3-645.8l474.2-473.1l-768.3-768.9c-422.3-423.4-780.8-784.7-796.6-803.3
		c-225.8-269.3-246.1-496.2-68.3-761c71.1-106.1,173.9-212.3,411-425.7c154.1-138.9,203.8-188.6,396.9-398
		c189.7-205.5,324.6-325.2,439.8-390.1c177.8-99.4,362.4-85.2,562.3,43.5c100.5,64.4,160.3,121.9,919.6,880.7l763.8,762.7
		l760.4-759.9c418.9-417.8,783-779.1,810.1-802.2c100.5-86.9,206.1-147.9,300.9-174.4c35.6-10.2,60.4-13,118.6-13
		c96-0.6,149,12.4,248.4,61.5c137.2,67.7,252.9,169.4,479.3,420.6c172.2,191.9,191.4,211.1,395.7,400.8
		c236.5,219,326.3,315.6,404.2,434.1c46.3,70,70.6,126.5,84.7,195.3c12.4,58.7,13,91.5,4.5,153.6
		c-15.2,111.8-71.1,225.8-176.1,360.2c-24.3,31-341,352.3-805,817.5l-765.5,766.1l768.3,769.5c422.3,422.8,780.8,784.1,796.6,802.8
		c85.2,101.6,141.1,197.6,168.8,288.5c13.5,43.5,15.2,60.4,15.8,126.5c0,85.8-11.9,145.7-44,217.3c-70,156.4-162.6,263.6-472,544.8
		c-190.8,173.9-202.1,184.6-390.7,389.5c-194.8,211.7-293,302.6-406.5,376.5c-107.3,70.6-180.1,94.3-286.8,94.3
		c-92.6,0.6-157.5-15.8-248.4-61.5c-142.8-72.3-155.2-83-998.1-925.3l-763.3-762.7L6530.2,8876c-356.8,357.4-551,556.6-638.5,654.9
		c-207.2,232.6-360.2,377.7-482.7,459C5262.3,10087,5121.1,10128.2,4996.9,10109.5z"/>
</g>
</svg>
