<svg id="Layer_1" data-name="Layer 1" xmlns="http://www.w3.org/2000/svg" viewBox="0 0 50 47.28">
  <defs>
    <style>
      .cls-1 {
        fill: #e63828;
      }

      .cls-2 {
        fill: #d7322b;
      }

      .cls-3 {
        fill: #6ea13c;
      }

      .cls-4 {
        fill: #7cb63b;
      }

      .cls-5 {
        fill: #81b345;
      }

      .cls-6 {
        fill: #fb7549;
      }
    </style>
  </defs>
  <g id="povrce3">
    <polygon class="cls-1" points="23.04 45.28 2.5 32.75 1.64 18.27 9.9 6.31 36.51 6.31 45.5 14.56 44.77 29.05 39.93 40.68 23.04 45.28"/>
    <g id="as">
      <path class="cls-2" d="M32.48,6.24C41,5.59,45.17,8.44,48.1,16.37c6.84,18.35-5.73,32.47-22.82,32.27C12.42,48.47,4.49,44.16.59,33.3-.59,30,.38,26,.34,22.31c.57,0,1.18,0,1.75,0,.85,2.24,1.71,4.48,2.52,6.72a7.92,7.92,0,0,0,.08,2.4C8.27,39.65,24.43,42.7,33.29,37c4.48-2.89,7.37-6.39,7.61-11.39.25-4.6,1.91-9.89-3.25-13.35,3.25-1.17,1.46-2.4-.08-3.37A46.89,46.89,0,0,0,32.48,6.24Z" transform="translate(0 -1.36)"/>
      <path class="cls-3" d="M18.89,5.35C20.68,6.57,22,7.18,24,5c1.59-1.67,4.68-2,7.69-3.05-.73,2-1.14,3-1.51,4C31.06,7,31.91,8,32.93,9.34c-1.47.08-2.77.2-4.11.28.08.53.2,1.06.28,1.59s0,.85,0,1.26c.24.73.44,1.46.73,2.28-1.47-.37-2.85-.65-4.19-1-1.14-.57-2.28-1.14-3.38-1.71-.89-.28-1.83-.89-2.64-.77-4.52.73-9,1.63-13.43,2.48C8,7.91,12.79,8.64,17.22,8.6h1.71C18.89,7.38,18.89,6.37,18.89,5.35Z" transform="translate(0 -1.36)"/>
      <path class="cls-1" d="M17.18,8.64c-4.43.09-9.27-.69-11,5.17.08,3.5-2,6-4.07,8.5-.57,0-1.18,0-1.75,0-.53-7.65,4.35-14.52,12.13-17C14.05,6.41,15.64,7.5,17.18,8.64Z" transform="translate(0 -1.36)"/>
      <path class="cls-4" d="M29.1,11.21c-.08-.53-.2-1.06-.28-1.59,1.3-.08,2.64-.16,4.11-.28L30.2,6c.78.08,1.51.2,2.28.28,1.75.86,3.54,1.63,5.21,2.65S41,11,37.77,12.26C34.88,11.9,32,11.53,29.1,11.21Z" transform="translate(0 -1.36)"/>
      <path class="cls-5" d="M17.18,8.64c-1.54-1.14-3.13-2.23-4.67-3.37-1-.78-2-1.59-3-2.36.28-.53.61-1,.89-1.55,2.81,1.34,5.66,2.65,8.46,4V8.64Z" transform="translate(0 -1.36)"/>
      <path class="cls-1" d="M29.1,11.21c2.89.36,5.78.69,8.63,1C42.86,15.64,41.23,21,41,25.57c-.28,5-3.13,8.54-7.6,11.39-8.87,5.7-25,2.64-28.6-5.53A6.58,6.58,0,0,1,4.69,29c1.43,0,3.18.57,4.15-.08.7-.49.49-2.53.41-3.87,0-1.1-.61-2.16-.73-3.3-.45-3.17.08-5.57,4.15-5.61,1.38,0,3.46-.65,3.94-1.63,1.35-2.6,3.34-2.68,5.66-2.48,1.14.57,2.28,1.14,3.38,1.71.93,3.46,1.87,7,2.8,10.33,3.66-6.06,3.83-8.42.7-11.63A10.53,10.53,0,0,0,29.1,11.21Z" transform="translate(0 -1.36)"/>
      <path class="cls-6" d="M22.31,12.1C20,11.9,18,12,16.66,14.58c-.53,1-2.61,1.63-3.95,1.63-4.07,0-4.6,2.44-4.15,5.62a31.75,31.75,0,0,1,.73,3.29c.08,1.34.29,3.38-.41,3.87-1,.65-2.72.12-4.15.08-.85-2.24-1.7-4.48-2.52-6.72,2-2.52,4.15-5,4.07-8.5,4.48-.85,9-1.75,13.43-2.48C20.48,11.17,21.42,11.82,22.31,12.1Z" transform="translate(0 -1.36)"/>
      <path class="cls-4" d="M29.15,12.47c3.13,3.21,3,5.61-.7,11.63-.93-3.41-1.87-6.87-2.8-10.33,1.34.33,2.72.65,4.19,1C29.63,14,29.39,13.24,29.15,12.47Z" transform="translate(0 -1.36)"/>
    </g>
  </g>
</svg>
