<svg id="Layer_1" data-name="Layer 1" xmlns="http://www.w3.org/2000/svg" viewBox="0 0 353.37 270.87">
  <path d="M7,131.23c2-7,6.82-12,11.86-16.91C27,106.37,34.93,98.22,43,90.21c10.5-10.43,23.25-10.4,33.74.1q31.32,31.36,62.58,62.8a40.11,40.11,0,0,1,2.94,3.94,48.08,48.08,0,0,1,3-3.79Q217.61,80.72,290,8.18C297,1.11,305-2,314.61,1.39a27.65,27.65,0,0,1,9.33,6.2c9.69,9.33,19.11,18.94,28.6,28.48,10.43,10.48,10.39,23.2-.14,33.73q-89.64,89.67-179.29,179.3c-4.8,4.8-9.55,9.64-14.39,14.39-9.86,9.68-22.75,9.93-32.51.2Q70,207.71,14.07,151.4c-3.16-3.18-4.78-7.89-7.11-11.89Z" transform="translate(-6.96)"/>
</svg>
