<?xml version="1.0" encoding="utf-8"?>
<!-- Generator: Adobe Illustrator 26.0.1, SVG Export Plug-In . SVG Version: 6.00 Build 0)  -->
<svg version="1.1" id="Layer_1" xmlns="http://www.w3.org/2000/svg" xmlns:xlink="http://www.w3.org/1999/xlink" x="0px" y="0px"
	 viewBox="0 0 48 48" style="enable-background:new 0 0 48 48;" xml:space="preserve">
<style type="text/css">
	.st0{fill:#24201D;}
</style>
<g>
	<g id="XMLID_1120_">
	</g>
	<path id="XMLID_5722_" class="st0" d="M15.8,13.9c-5.4,6.6-0.1,13,1,19.9c0.6,3.6-0.3,7.6-4.6,9C20.1,34.9,1.7,20.1,15.8,13.9z"/>
	<path id="XMLID_5710_" class="st0" d="M24.3,3.4c-5.4,6.6-0.1,13,1,19.9c0.6,3.6-0.3,7.6-4.6,9C28.6,24.5,10.1,9.7,24.3,3.4z"/>
	<path id="XMLID_5709_" class="st0" d="M35.7,12.3c-5.4,6.6-0.1,13,1,19.9c0.6,3.6-0.3,7.6-4.6,9C40,33.4,21.5,18.6,35.7,12.3z"/>
</g>
</svg>
