<?xml version="1.0" encoding="utf-8"?>
<!-- Generator: Adobe Illustrator 26.0.1, SVG Export Plug-In . SVG Version: 6.00 Build 0)  -->
<svg version="1.1" id="Layer_1" xmlns="http://www.w3.org/2000/svg" xmlns:xlink="http://www.w3.org/1999/xlink" x="0px" y="0px"
	 viewBox="0 0 48 48" style="enable-background:new 0 0 48 48;" xml:space="preserve">
<style type="text/css">
	.st0{fill:#24201D;}
</style>
<path class="st0" d="M44.8,12.1c-0.1-0.1-0.2-0.1-0.3-0.2v-0.6c0-0.3-0.2-0.6-0.5-0.8c-6.6-3.7-13.4-3.7-20-0.2
	c-6.6-3.5-13.4-3.4-20,0.2c-0.3,0.2-0.5,0.5-0.5,0.8v0.6C3.4,12,3.3,12,3.2,12.1c-0.6,0.3-1,0.9-1,1.6v24.7c0,0.9,0.9,1.6,1.8,1.3
	c6.7-1.9,13.4-1.8,20.1,0.6c6.7-2.3,13.4-2.5,20.1-0.6c0.9,0.3,1.8-0.4,1.8-1.3V13.7C45.8,13,45.4,12.4,44.8,12.1z M5.4,11.9
	c6-3.1,11.8-3.1,17.7,0v24.4c-2.9-0.9-5.9-1.4-8.9-1.4c-3,0-5.9,0.5-8.9,1.4V11.9z M42.6,11.9v24.4c-5.9-1.9-11.8-1.9-17.7,0V11.9
	C30.9,8.8,36.7,8.8,42.6,11.9z"/>
</svg>
