<?xml version="1.0" encoding="utf-8"?>
<!-- Generator: Adobe Illustrator 26.0.1, SVG Export Plug-In . SVG Version: 6.00 Build 0)  -->
<svg version="1.1" id="Layer_1" xmlns="http://www.w3.org/2000/svg" xmlns:xlink="http://www.w3.org/1999/xlink" x="0px" y="0px"
	 viewBox="0 0 355 347" style="enable-background:new 0 0 355 347;" xml:space="preserve">
<style type="text/css">
	.st0{fill:#FFFFFF;}
</style>
<path class="st0" d="M115.6,47c2.6,0.8,4.2,2.6,5.3,5.1c2.7,6.5,5.5,12.9,8.4,19.2c0.9,2,1.2,4,0.5,6.1c-0.2,0.7-0.4,1.4-0.4,2.1
	c-0.1,3.2-1.7,5.2-4.7,6.2c-1.9,0.6-2.5,1.9-2.5,3.7c0,0.2,0,0.5-0.1,0.7c-0.5,3.1,0.3,5.4,2.6,7.9c7.4,8.1,13,17.6,17.2,27.6
	c4.5,10.7,8.5,21.7,12.3,32.8c3,8.6-2,16.5-10.8,17.9c-6.7,1.1-13.8-3.9-14.7-10.7c-0.8-6.2-1.2-12.4-1.9-18.6
	c-1.5-12.3-4.2-24.4-9.2-35.8c-0.2-0.6-0.5-1.1-0.9-1.8c-1.8,0.8-3.5,1.5-5.2,2.2c-11.3,5-22.7,9.9-34,14.9
	c-4.8,2.1-7.9,0.9-9.9-3.9C61.8,109.5,56,96.3,50.2,83c-2.1-4.8-0.9-7.9,3.8-9.9c19-8.4,38.1-16.7,57.1-25.1c0.6-0.3,1.2-0.7,1.8-1
	C113.8,47,114.7,47,115.6,47z"/>
<path class="st0" d="M110.4,267c-3.2-3.7-6.5-7.3-9.7-11c-11.9-13.8-18.2-29.8-18.7-48c-0.2-7.7,3.7-11.8,11.4-11.8
	c25.6,0,51.1,0,76.7,0c0.9,0,1.9,0,2.9,0c1.5-4.7,2.9-9.3,4.4-13.8c4.3-12.7,9.3-25.1,16.7-36.4c3.5-5.2,7.4-10.2,11.4-15.1
	c1.3-1.6,2.2-3.1,1.8-5.2c-0.2-1-0.2-2-0.2-3c0-1.9-0.7-3.3-2.6-3.9c-3-0.9-4-3.1-4.6-6c-0.8-3.7-0.7-6.9,1-10.3
	c2.9-5.8,5.2-11.8,7.8-17.7c1.9-4.3,5.1-5.6,9.5-3.6c19.2,8.4,38.3,16.8,57.5,25.2c4.3,1.9,5.6,5.1,3.6,9.5
	c-5.9,13.5-11.8,27-17.7,40.4c-1.9,4.3-5.1,5.6-9.5,3.7c-12.4-5.4-24.8-10.9-37.2-16.3c-0.7-0.3-1.4-0.6-2.3-0.9
	c-8.4,16.8-11.8,34.7-12.9,53.5c1.4,0,2.8,0,4.1,0c6.9,0,13.9,0,20.8,0c7.4,0,11.4,4.2,11.2,11.5c-0.8,23.3-10.3,42.3-28.1,57.3
	c-0.4,0.3-0.8,0.7-1.4,1.2c1.2,0.2,2.1,0.3,3,0.4c5.1,0.8,8.7,5,8.5,10.1c-0.1,5-4.1,9.1-9.1,9.6c-0.9,0.1-1.7,0.1-2.6,0.1
	c-31.6,0-63.1,0-94.7,0c-1.4,0-2.8-0.1-4.2-0.4c-4.8-1.2-7.8-5.4-7.4-10.2c0.3-4.8,3.7-8.4,8.5-9.2c0.8-0.1,1.7-0.2,2.5-0.3
	C110.9,266.6,110.6,266.8,110.4,267z"/>
</svg>
