<?xml version="1.0" encoding="utf-8"?>
<!-- Generator: Adobe Illustrator 26.0.1, SVG Export Plug-In . SVG Version: 6.00 Build 0)  -->
<svg version="1.1" id="Objects" xmlns="http://www.w3.org/2000/svg" xmlns:xlink="http://www.w3.org/1999/xlink" x="0px" y="0px"
	 viewBox="0 0 48 48" style="enable-background:new 0 0 48 48;" xml:space="preserve">
<style type="text/css">
	.st0{fill-rule:evenodd;clip-rule:evenodd;fill:#24201D;}
</style>
<g>
	<path class="st0" d="M37.4,5.7c10.8-0.4,13,12.7,6.4,19.7c0,0-4.6,0-4.6,0l-3.1-6.2l-4.1,8c-0.8-2.1-3.4-8.7-4.2-10.7
		c-0.7,1.8-2.3,6-3,7.8c-0.2-0.6-0.6-1.2-1.1-1.7c-1.3-1.6-3.9-1.3-5.8-1.3c0.4-3.2-0.5-7-4.4-7c-2.1,0.1-6.1-0.6-7.6,1.3
		c-0.1,0.1-0.2,0.2-0.3,0.3C6.6,4.7,21.1,2.3,26.9,11.5C30.2,8.3,32.3,5.8,37.4,5.7z M20.7,34.6c1.2,0,2.3-0.5,3.1-1.3
		c0.1-0.1,0.3-0.3,0.4-0.4c0.8-1.5,2.9-7.9,3.7-9.5l3.8,9.8l4.4-8.5c2.1,4.5,1,3,5.7,3.2c-4.9,5.3-10.1,9.5-14.9,14.3
		c-1.4-1.4-6.4-6.4-7.7-7.6L20.7,34.6z"/>
	<path class="st0" d="M13.7,17.1c0.8,0,1.5,0.7,1.5,1.5v5.5c6.8,0.3,7.3-1.8,7,6.1c0,0.8-0.7,1.5-1.5,1.5h-5.5
		c-0.2,6.8,1.6,7.2-6.1,6.9c-0.8,0-1.5-0.7-1.5-1.5v-5.4c-6.8-0.3-7.3,1.7-7-6.1c0-0.8,0.7-1.5,1.5-1.5h5.5
		C7.9,17.4,5.8,16.8,13.7,17.1z"/>
</g>
</svg>
